<?xml version="1.0" standalone="no"?>
<!DOCTYPE svg PUBLIC "-//W3C//DTD SVG 20010904//EN"
 "http://www.w3.org/TR/2001/REC-SVG-20010904/DTD/svg10.dtd">
<svg version="1.0" xmlns="http://www.w3.org/2000/svg"
 width="1024.000000pt" height="1024.000000pt" viewBox="0 0 1024.000000 1024.000000"
 preserveAspectRatio="xMidYMid meet">
<metadata>
Created by potrace 1.14, written by Peter Selinger 2001-2017
</metadata>
<g transform="translate(0.000000,1024.000000) scale(0.100000,-0.100000)"
fill="#000000" stroke="none">
<path d="M3797 7764 c-2 -2 -46 -7 -97 -9 -50 -3 -95 -7 -99 -9 -4 -3 -34 -8
-66 -11 -33 -4 -67 -11 -75 -15 -8 -4 -28 -10 -45 -13 -83 -14 -211 -90 -262
-156 -35 -45 -35 -47 -29 -118 5 -61 3 -73 -9 -73 -33 0 -220 -154 -346 -284
-63 -65 -101 -134 -117 -212 -21 -98 8 -166 119 -280 45 -46 86 -81 92 -77 6
3 7 1 3 -5 -7 -12 -15 -41 -20 -72 -2 -8 -11 -33 -20 -55 -67 -152 -122 -379
-125 -517 -2 -103 11 -140 71 -192 l40 -35 3 -93 c4 -105 23 -187 62 -268 32
-65 31 -64 108 -147 66 -72 197 -163 320 -223 88 -43 217 -70 336 -70 65 0 67
-1 73 -27 18 -73 99 -215 164 -286 125 -137 300 -253 390 -260 12 0 22 -5 22
-9 0 -20 -25 -58 -56 -84 -166 -139 -254 -245 -286 -347 -42 -133 -28 -300 35
-422 17 -33 34 -62 37 -65 3 -3 17 -24 32 -47 l27 -42 -24 -69 c-13 -38 -26
-80 -29 -93 -3 -13 -14 -58 -25 -99 -18 -71 -27 -115 -37 -185 -2 -16 -8 -52
-14 -80 -5 -27 -7 -113 -5 -190 3 -116 8 -154 29 -220 29 -92 95 -209 156
-278 60 -67 200 -157 245 -157 8 0 15 -5 15 -10 0 -17 207 -4 292 19 143 37
256 103 304 176 l17 26 251 -2 c138 -1 299 1 359 6 100 8 108 7 125 -12 30
-35 153 -109 262 -158 134 -60 216 -78 346 -73 89 3 107 7 167 36 106 52 168
144 182 267 8 73 -6 197 -40 365 -8 41 -20 100 -25 130 -16 85 -45 213 -79
344 -17 66 -33 131 -36 145 -9 48 -93 295 -143 422 -55 137 -188 425 -207 449
-11 13 -75 178 -75 192 0 3 21 9 48 13 68 10 212 66 402 155 91 43 205 96 254
119 184 85 386 243 386 302 0 27 2 28 28 18 44 -17 248 -14 321 6 166 43 304
156 382 310 31 63 41 94 44 144 3 63 4 64 42 81 120 55 202 202 203 363 0 40
-37 169 -74 258 -4 9 3 27 18 44 14 16 30 52 36 79 6 27 24 72 39 100 69 120
88 253 55 380 -40 157 -207 430 -365 598 l-64 68 3 133 c3 125 2 135 -20 167
-31 46 -74 66 -183 84 -168 28 -316 33 -520 20 -145 -10 -327 -64 -445 -132
-86 -50 -238 -190 -318 -291 -32 -40 -82 -101 -99 -119 -6 -6 -15 -21 -18 -32
-3 -11 -10 -20 -15 -20 -5 0 -11 -8 -13 -17 -4 -17 -5 -17 -6 -1 -1 11 -14 21
-38 27 -85 22 -169 43 -183 46 -8 2 -48 13 -88 25 -40 12 -79 20 -87 16 -8 -3
-17 -1 -20 3 -8 14 -55 20 -55 7 0 -8 -3 -7 -8 1 -4 6 -61 21 -127 33 -66 12
-122 23 -125 25 -5 3 -158 16 -245 20 -22 1 -46 -3 -54 -9 -11 -8 -13 -8 -8 0
4 7 -11 11 -46 13 -58 2 -59 3 -96 64 -39 67 -139 175 -201 217 -164 111 -359
180 -640 225 -58 9 -116 19 -130 21 -35 7 -257 14 -263 8z m3379 -942 c-3 -5
1 -9 9 -9 8 0 12 3 10 7 -2 4 14 6 35 6 22 0 40 -4 40 -9 0 -5 6 -5 13 1 8 7
18 7 27 2 8 -5 18 -6 22 -3 5 2 15 -1 23 -7 11 -10 15 -10 15 -1 0 7 5 9 10 6
6 -4 7 -12 3 -18 -4 -8 -1 -7 9 1 11 9 18 10 23 2 3 -6 10 -8 15 -5 5 3 7 -3
5 -13 -2 -11 3 -19 10 -19 8 0 11 7 7 16 -5 14 -3 14 11 2 9 -7 15 -17 12 -21
-3 -5 -1 -12 5 -15 6 -4 9 -3 8 2 -2 4 2 8 7 8 6 0 9 -4 7 -8 -1 -5 2 -5 8 -2
13 8 52 -24 44 -36 -3 -5 2 -6 12 -2 13 5 15 2 9 -18 -4 -16 -3 -20 3 -11 7
11 12 11 24 -2 9 -8 18 -12 22 -9 3 4 6 -1 6 -9 0 -9 7 -21 15 -28 8 -7 12
-16 9 -21 -3 -5 -1 -9 4 -9 28 0 79 -168 58 -191 -8 -9 -8 -10 2 -5 7 4 12 1
12 -8 0 -9 -6 -16 -12 -17 -10 0 -10 -2 0 -6 6 -2 9 -10 5 -16 -8 -13 -10 -19
-12 -42 0 -8 -9 -15 -18 -15 -15 0 -16 -2 -3 -10 12 -8 12 -10 -3 -16 -9 -3
-14 -10 -11 -15 3 -5 -9 -9 -26 -9 -28 0 -30 -2 -19 -21 6 -12 9 -30 6 -40 -3
-10 -2 -17 3 -14 4 2 8 -6 8 -20 0 -14 -3 -23 -7 -21 -4 3 -7 -4 -7 -14 0 -15
3 -16 13 -8 11 9 12 6 5 -13 -5 -13 -7 -30 -5 -36 3 -7 0 -13 -6 -13 -5 0 -8
9 -6 20 2 11 0 20 -5 20 -13 0 -5 -63 9 -68 8 -3 4 -9 -11 -16 -12 -7 -22 -17
-21 -23 1 -5 -5 -10 -14 -10 -16 0 -55 55 -48 68 3 4 -2 9 -10 12 -9 4 -12 1
-8 -9 4 -10 0 -15 -8 -14 -26 4 -40 0 -34 -10 4 -6 -1 -7 -11 -3 -14 5 -14 7
5 18 12 6 19 14 16 17 -3 3 -8 15 -10 27 -3 14 0 19 7 14 7 -3 -1 12 -17 34
-26 36 -31 39 -42 24 -10 -12 -12 -13 -8 -1 3 9 -4 21 -16 28 -12 8 -18 9 -14
3 3 -6 2 -11 -3 -11 -16 0 -22 13 -11 26 9 11 15 11 32 -1 27 -19 42 -19 25
-1 -7 8 -16 12 -20 10 -4 -2 -10 1 -13 6 -5 8 -13 5 -26 -6 -19 -17 -21 -16
-57 20 -81 80 -82 82 -92 66 -6 -8 -10 -12 -11 -7 -1 4 -3 12 -4 17 -1 6 -3
15 -4 21 -1 8 -5 9 -14 0 -8 -6 -16 -8 -19 -5 -3 3 -9 0 -14 -7 -5 -8 -3 -10
7 -5 8 5 8 2 -2 -6 -16 -13 -15 -43 2 -32 5 3 9 2 9 -2 0 -9 -32 -33 -45 -33
-5 0 -2 4 7 10 9 5 15 16 12 24 -4 8 -10 12 -15 9 -5 -3 -7 -10 -4 -15 3 -5
-1 -6 -9 -3 -9 3 -16 11 -16 17 0 6 3 7 7 4 8 -8 33 11 33 25 0 6 -6 6 -14 -1
-11 -10 -14 -9 -12 1 1 7 5 18 9 25 4 7 0 16 -10 22 -13 8 -14 10 -4 11 11 0
9 4 -5 14 -10 8 -21 11 -24 8 -5 -7 -27 -14 -47 -15 -7 0 -10 -4 -7 -8 2 -5
11 -6 19 -2 10 3 13 1 10 -9 -6 -15 -35 -21 -35 -6 0 4 -5 8 -11 8 -8 0 -8 -4
0 -13 6 -8 9 -23 6 -35 -2 -12 0 -24 5 -27 5 -3 7 4 5 15 -2 11 0 18 5 15 6
-3 8 0 7 7 -2 7 -2 9 1 4 2 -4 8 -2 13 5 7 11 9 9 9 -5 0 -11 3 -16 8 -12 4 4
7 12 7 18 0 6 11 13 25 14 21 3 22 2 8 -6 -9 -6 -15 -16 -13 -23 3 -6 -4 -23
-14 -37 -16 -20 -22 -22 -34 -12 -10 9 -17 10 -22 2 -3 -5 -1 -10 4 -10 6 0
11 -5 11 -11 0 -8 -4 -9 -13 0 -8 6 -17 8 -20 4 -4 -3 1 -12 11 -19 9 -7 12
-14 6 -14 -6 0 -17 7 -24 15 -7 8 -9 15 -6 15 4 0 4 5 0 11 -5 8 -9 8 -14 -1
-5 -9 -9 -9 -14 -1 -4 6 -2 12 3 12 6 1 17 2 24 3 6 1 10 8 8 16 -2 8 -3 23
-3 33 0 9 -4 17 -9 17 -6 0 -7 -4 -4 -10 3 -5 0 -10 -7 -11 -10 0 -10 -2 0 -6
6 -2 12 -9 12 -14 0 -6 -5 -7 -12 -3 -6 4 -8 3 -5 -3 4 -6 -3 -13 -15 -16 -18
-5 -19 -8 -8 -21 8 -11 9 -16 1 -16 -10 0 -13 7 -10 26 0 4 -3 10 -8 13 -5 3
-24 47 -42 96 -18 50 -49 123 -67 164 l-34 74 26 51 c31 60 56 86 104 112 61
32 98 42 109 31 8 -8 11 -7 11 1 0 16 27 15 33 0 3 -8 6 -6 6 5 1 19 21 24 22
5 0 -10 2 -10 6 0 4 10 8 10 21 0 10 -8 13 -9 9 -1 -4 7 0 13 10 16 10 3 19 5
21 6 2 0 1 -3 -2 -7z m-69 -468 c0 -8 -3 -12 -5 -9 -3 3 -11 0 -18 -6 -10 -8
-13 -6 -11 8 1 22 34 29 34 7z m99 -53 c-3 -5 1 -14 8 -20 9 -8 16 -8 20 -2 7
10 10 7 99 -75 27 -25 56 -43 65 -42 9 2 17 -3 18 -9 3 -24 4 -25 18 -14 11
10 17 8 29 -9 24 -34 8 -68 -28 -60 -5 1 -19 3 -30 4 -11 1 -19 8 -17 15 2 8
-4 10 -18 6 -12 -4 -20 -2 -20 5 0 6 -10 15 -22 20 -18 7 -12 8 24 6 34 -2 45
0 41 9 -3 8 -19 12 -44 10 -21 -2 -39 1 -39 5 0 5 -9 7 -20 5 -11 -2 -18 0
-15 6 4 5 1 9 -4 9 -6 0 -11 4 -11 10 0 5 8 6 18 3 15 -6 15 -5 3 11 -14 17
-16 17 -29 -1 -13 -17 -13 -16 -7 7 7 22 6 23 -8 11 -9 -7 -14 -17 -12 -22 8
-13 -35 -33 -47 -21 -6 6 -5 12 3 17 8 5 10 4 5 -3 -4 -7 -4 -12 1 -12 11 0
40 20 29 20 -5 0 -3 7 4 15 16 19 -6 53 -24 35 -5 -5 -15 -10 -20 -10 -6 0 -3
5 7 11 12 7 15 15 8 27 -10 19 -4 42 10 42 6 0 8 -4 5 -9z m-119 -69 c-15 -10
-24 -21 -21 -25 4 -3 -5 -12 -19 -18 -21 -10 -24 -15 -16 -30 5 -11 7 -19 5
-19 -3 0 -10 9 -16 20 -9 16 -6 22 17 34 16 8 24 15 18 16 -12 1 36 39 50 40
6 0 -2 -8 -18 -18z m-102 -12 c-3 -5 1 -10 9 -10 9 0 16 -4 16 -8 0 -4 -8 -8
-19 -8 -11 0 -17 6 -16 16 5 21 4 20 11 20 3 0 2 -4 -1 -10z m217 -12 c-7 -7
-12 -8 -12 -2 0 14 12 26 19 19 2 -3 -1 -11 -7 -17z m-35 -3 c0 -8 -4 -12 -9
-9 -4 3 -8 9 -8 15 0 5 4 9 8 9 5 0 9 -7 9 -15z m-67 1 c0 -2 -8 -10 -17 -17
-16 -13 -17 -12 -4 4 13 16 21 21 21 13z m50 -21 c0 -2 -6 -7 -12 -11 -7 -4
-10 -4 -6 1 4 4 0 14 -10 22 -15 13 -15 13 6 3 12 -6 22 -13 22 -15z m-50 -14
c-8 -15 -4 -25 18 -49 31 -33 27 -67 -6 -55 -14 5 -14 3 3 -14 18 -18 42 -22
31 -5 -2 4 2 18 9 32 13 24 14 24 12 3 -1 -13 -6 -23 -12 -24 -5 0 -1 -4 10
-9 14 -5 24 -3 34 9 13 15 13 15 8 -2 -4 -11 -1 -20 8 -23 8 -4 15 -11 15 -16
0 -6 -6 -5 -15 2 -9 8 -15 9 -15 2 0 -6 4 -13 10 -17 5 -3 6 -13 3 -21 -5 -14
-3 -14 15 -3 12 7 19 15 17 18 -10 9 17 29 33 24 12 -3 18 2 19 17 1 11 -2 18
-7 15 -5 -3 -14 4 -20 15 -7 13 -7 20 0 20 5 0 10 -7 10 -15 0 -8 5 -14 12
-12 7 1 13 -8 14 -21 1 -17 -10 -29 -42 -48 -45 -27 -55 -41 -29 -41 8 0 15 4
15 8 0 5 9 13 21 19 22 12 54 -4 43 -21 -3 -5 -1 -9 5 -9 5 0 11 3 14 8 2 4 2
2 1 -5 -2 -7 1 -15 6 -18 6 -4 10 -3 11 2 0 4 2 18 3 31 2 13 -4 27 -13 32 -9
5 -11 10 -4 10 6 0 15 -5 18 -10 4 -6 12 -4 21 5 9 8 22 15 30 15 8 0 12 5 9
11 -4 6 -14 8 -22 5 -8 -3 -11 -1 -8 4 3 6 2 10 -3 10 -6 0 -13 8 -16 17 -6
16 -6 16 12 0 11 -10 25 -16 33 -14 8 2 11 2 6 0 -4 -3 -5 -9 -1 -14 3 -5 19
-2 36 7 16 9 28 12 25 7 -3 -4 -23 -17 -44 -28 -21 -11 -46 -27 -55 -35 -19
-15 -25 -36 -8 -25 6 3 10 1 10 -4 0 -6 -5 -11 -12 -11 -16 0 -1 -13 20 -16 9
-2 26 6 37 16 14 13 25 16 35 10 11 -7 11 -10 3 -11 -28 -3 -32 -4 -39 -11 -7
-8 11 -12 31 -8 6 1 5 -4 -2 -11 -13 -13 -66 -22 -58 -9 3 5 -7 7 -22 4 -21
-3 -24 -2 -13 6 12 8 11 10 -5 7 -11 -1 -25 -6 -32 -10 -18 -11 -11 -48 12
-58 18 -9 18 -9 4 3 -13 11 -14 17 -5 28 17 23 48 22 41 -1 -4 -11 -2 -19 5
-19 6 0 9 4 6 9 -3 5 5 9 19 9 13 0 24 -3 23 -7 -2 -19 3 -31 11 -27 5 4 11 0
13 -6 3 -8 9 -4 17 10 9 16 9 22 0 20 -6 -2 -13 5 -14 15 -2 9 1 17 6 17 5 0
9 6 9 14 0 8 4 17 9 21 11 6 41 -21 41 -37 0 -6 -9 0 -20 13 -10 13 -19 19
-20 12 0 -6 -3 -20 -7 -30 -6 -15 -5 -16 9 -5 14 11 17 10 23 -7 3 -12 11 -21
16 -21 6 0 8 4 5 8 -3 5 1 9 9 9 8 0 15 -4 15 -9 0 -4 -5 -8 -11 -8 -5 0 -7
-5 -4 -10 4 -6 10 -8 14 -6 4 3 13 1 20 -3 10 -7 10 -14 -3 -38 -12 -23 -12
-33 -3 -43 9 -10 9 -11 0 -6 -7 4 -13 2 -13 -3 0 -6 6 -11 13 -12 9 0 9 -2 0
-6 -10 -3 -10 -10 -1 -26 10 -21 10 -21 -7 -7 -17 14 -18 13 -8 -5 11 -23 11
-35 0 -52 -4 -6 -3 -14 2 -17 12 -8 -20 -115 -48 -159 -41 -66 -96 -69 -196
-9 -38 23 -76 43 -84 43 -70 6 -101 5 -101 -3 0 -7 -5 -6 -13 0 -7 7 -19 55
-27 109 -7 54 -14 107 -17 118 -2 11 -8 40 -13 65 -5 25 -12 54 -16 64 -5 14
-4 17 4 12 7 -4 12 -3 12 3 0 5 -5 11 -10 13 -6 2 -13 21 -16 43 -2 22 -6 49
-7 60 -2 11 2 26 7 34 14 18 15 54 1 63 -6 5 -2 8 8 8 10 0 16 4 12 10 -3 5
-11 7 -19 4 -7 -3 -13 1 -13 9 0 9 7 12 19 9 10 -2 18 1 18 7 0 6 5 11 11 11
8 0 8 -4 2 -12 -13 -17 -14 -56 -2 -63 5 -4 9 1 9 9 0 9 6 16 13 16 8 0 7 3
-3 10 -12 7 -12 12 -3 21 10 10 10 16 0 28 -8 10 -8 12 -1 8 7 -4 14 0 18 8 3
8 8 15 11 15 3 0 1 -9 -5 -19z m25 -11 c3 -5 1 -10 -4 -10 -6 0 -11 5 -11 10
0 6 2 10 4 10 3 0 8 -4 11 -10z m22 -24 c-4 -9 1 -17 11 -19 16 -4 16 -5 0 -6
-19 -1 -32 14 -23 29 9 15 18 12 12 -4z m38 4 c-3 -5 -12 -10 -18 -10 -7 0 -6
4 3 10 19 12 23 12 15 0z m77 -5 c-2 -5 5 -13 15 -17 17 -7 17 -8 0 -5 -10 1
-18 7 -17 12 1 6 -9 13 -22 17 -22 7 -22 7 2 5 14 -1 24 -6 22 -12z m-32 -20
c0 -8 -2 -15 -4 -15 -2 0 -6 7 -10 15 -3 8 -1 15 4 15 6 0 10 -7 10 -15z m-20
-15 c0 -5 -7 -7 -15 -4 -8 4 -15 8 -15 10 0 2 7 4 15 4 8 0 15 -4 15 -10z
m123 -5 c4 -8 2 -17 -4 -21 -12 -7 -41 15 -33 27 8 14 31 11 37 -6z m-146 -27
c-3 -8 -6 -5 -6 6 -1 11 2 17 5 13 3 -3 4 -12 1 -19z m53 7 c11 -13 10 -14 -4
-9 -9 3 -16 10 -16 15 0 13 6 11 20 -6z m103 -22 c-7 -3 -13 -12 -14 -21 0
-11 -2 -13 -6 -4 -6 15 17 46 26 36 3 -4 0 -9 -6 -11z m-84 -13 c-6 -5 -18 -6
-26 -3 -19 8 -16 11 13 11 17 0 22 -3 13 -8z m111 -10 c0 -5 -4 -10 -10 -10
-5 0 -10 5 -10 10 0 6 5 10 10 10 6 0 10 -4 10 -10z m72 -32 c-7 -7 -12 -8
-12 -2 0 14 12 26 19 19 2 -3 -1 -11 -7 -17z m89 12 c9 13 10 13 6 0 -2 -8
-10 -15 -17 -15 -7 0 -15 7 -17 15 -4 13 -3 13 6 0 10 -13 12 -13 22 0z m-196
-29 c-6 -5 -25 10 -25 20 0 5 6 4 14 -3 8 -7 12 -15 11 -17z m131 13 c-4 -11
0 -14 16 -12 16 2 23 -3 24 -15 1 -12 1 -13 -3 -2 -2 8 -9 13 -14 9 -17 -10
-39 4 -33 21 3 8 8 15 11 15 3 0 2 -7 -1 -16z m-42 -13 c7 -10 -22 -37 -30
-28 -9 8 3 37 15 37 5 0 12 -4 15 -9z m121 -1 c-3 -5 2 -10 11 -10 10 0 15 -3
11 -6 -10 -10 -39 5 -32 16 3 5 8 10 11 10 3 0 2 -4 -1 -10z m82 -24 c0 -8 -8
-11 -21 -8 -19 5 -19 6 0 13 10 4 19 8 20 8 0 1 1 -5 1 -13z m-64 -41 c-3 -9
-8 -14 -10 -11 -3 3 -2 9 2 15 9 16 15 13 8 -4z m-230 -10 c-3 -9 -8 -14 -10
-11 -3 3 -2 9 2 15 9 16 15 13 8 -4z m274 -2 c-4 -3 -1 -13 6 -22 11 -14 10
-14 -5 -2 -21 15 -23 31 -6 31 6 0 8 -3 5 -7z m-30 -28 c0 -8 -4 -12 -9 -9 -5
3 -6 10 -3 15 9 13 12 11 12 -6z m-122 -5 c3 -6 -1 -7 -9 -4 -18 7 -21 14 -7
14 6 0 13 -4 16 -10z"/>
<path d="M6810 6600 c0 -5 5 -10 11 -10 5 0 7 5 4 10 -3 6 -8 10 -11 10 -2 0
-4 -4 -4 -10z"/>
<path d="M7124 6404 c-10 -8 -14 -13 -7 -10 6 4 13 1 15 -6 3 -7 7 -2 10 10 7
26 7 26 -18 6z"/>
<path d="M7066 6398 c3 -5 10 -6 15 -3 13 9 11 12 -6 12 -8 0 -12 -4 -9 -9z"/>
<path d="M7174 6396 c5 -14 2 -17 -9 -12 -9 3 -13 2 -10 -4 3 -6 1 -10 -5 -10
-7 0 -9 -7 -6 -16 4 -9 2 -22 -4 -29 -14 -16 2 -14 43 5 28 14 39 34 12 24
-10 -4 -13 0 -10 13 2 11 -1 26 -7 34 -8 11 -9 10 -4 -5z m2 -41 c-1 -8 -8
-21 -16 -28 -12 -10 -12 -9 -1 6 10 12 10 17 2 17 -7 0 -9 5 -6 10 9 15 24 12
21 -5z"/>
<path d="M6950 6346 c0 -2 7 -7 16 -10 8 -3 12 -2 9 4 -6 10 -25 14 -25 6z"/>
<path d="M7228 6333 c6 -2 10 -8 8 -12 -3 -4 4 -8 15 -8 10 -1 19 3 19 8 0 6
-4 8 -9 4 -5 -3 -12 -1 -16 5 -3 5 -12 10 -18 9 -9 0 -8 -2 1 -6z"/>
<path d="M6952 6320 c2 -8 -3 -14 -10 -12 -10 2 -10 -2 0 -17 7 -11 16 -18 20
-15 9 6 5 40 -6 51 -4 5 -6 1 -4 -7z"/>
<path d="M7085 6300 c-4 -6 -11 -8 -16 -5 -17 11 -31 -6 -18 -21 16 -20 24
-18 37 11 11 25 9 35 -3 15z"/>
<path d="M7296 6301 c9 -9 34 -9 34 -1 0 5 -9 8 -20 7 -10 -1 -17 -3 -14 -6z"/>
<path d="M7270 6291 c0 -5 5 -13 10 -16 6 -3 10 -2 10 4 0 5 -4 13 -10 16 -5
3 -10 2 -10 -4z"/>
<path d="M7350 6280 c0 -5 5 -10 11 -10 5 0 7 5 4 10 -3 6 -8 10 -11 10 -2 0
-4 -4 -4 -10z"/>
<path d="M7330 6240 c30 -32 40 -37 40 -19 0 5 -4 8 -8 5 -5 -3 -15 6 -22 19
-7 14 -19 25 -26 25 -6 0 1 -13 16 -30z"/>
<path d="M7380 6238 c0 -4 4 -8 9 -8 6 0 12 4 15 8 3 5 -1 9 -9 9 -8 0 -15 -4
-15 -9z"/>
<path d="M7439 6233 c-12 -16 -12 -17 2 -6 9 7 20 9 24 5 5 -4 5 -1 1 6 -9 16
-11 15 -27 -5z"/>
<path d="M7452 6211 c-11 -7 -11 -9 0 -14 9 -3 15 1 15 9 0 8 -1 14 -1 14 -1
0 -7 -4 -14 -9z"/>
<path d="M7496 6179 c4 -8 30 -6 38 2 3 3 -5 5 -19 5 -13 0 -22 -3 -19 -7z"/>
<path d="M7468 6171 c8 -4 13 -11 13 -15 -1 -3 1 -6 4 -6 3 0 10 0 17 0 6 0 3
7 -8 15 -10 8 -23 14 -29 15 -5 0 -4 -4 3 -9z"/>
<path d="M7530 6146 c0 -3 9 -10 20 -16 11 -6 20 -8 20 -6 0 3 -9 10 -20 16
-11 6 -20 8 -20 6z"/>
<path d="M7510 6130 c0 -6 -5 -8 -12 -4 -9 5 -9 2 1 -9 10 -13 11 -20 2 -30
-8 -10 -7 -19 4 -33 12 -15 14 -16 9 -2 -4 13 0 16 15 15 12 -1 21 -5 21 -10
0 -10 33 -5 43 8 5 6 6 2 3 -8 -3 -10 -2 -16 3 -12 5 3 8 -1 7 -7 -3 -18 -25
-55 -26 -42 0 5 5 15 10 20 8 8 6 15 -5 24 -11 9 -15 9 -15 1 0 -7 -4 -10 -9
-6 -5 3 -3 -9 6 -25 14 -30 16 -30 34 -14 13 12 17 25 13 43 -3 14 -6 32 -6
39 -1 6 -4 10 -6 7 -3 -3 -10 3 -17 12 -11 14 -14 13 -33 -8 -12 -12 -22 -17
-22 -10 0 7 -5 9 -12 5 -7 -4 -8 -3 -4 5 4 6 11 9 16 6 4 -3 10 1 13 9 4 10
-1 12 -16 9 -16 -3 -18 -2 -8 5 9 7 10 12 2 16 -6 4 -11 2 -11 -4z m67 -62
c-18 -11 -29 2 -16 18 10 12 14 12 20 2 4 -7 3 -16 -4 -20z"/>
<path d="M7580 6131 c0 -6 4 -13 10 -16 6 -3 7 1 4 9 -7 18 -14 21 -14 7z"/>
<path d="M7611 6114 c0 -11 3 -14 6 -6 3 7 2 16 -1 19 -3 4 -6 -2 -5 -13z"/>
<path d="M7209 6263 c20 -30 27 -35 47 -32 13 1 42 -44 37 -57 -3 -8 -2 -14 3
-13 5 1 11 0 14 -1 3 -1 19 -3 36 -4 l30 -2 -40 39 c-23 21 -45 39 -51 40 -5
1 -16 10 -23 20 -8 10 -19 16 -25 14 -7 -2 -21 3 -31 12 -17 13 -16 11 3 -16z
m50 -26 c0 -9 -2 -8 -6 1 -2 6 -10 9 -15 6 -7 -4 -8 -2 -4 5 9 13 26 5 25 -12z
m91 -73 c0 0 -7 -1 -15 -1 -8 0 -12 4 -9 9 3 4 1 8 -4 8 -5 0 -18 12 -27 28
-16 24 -14 23 18 -8 20 -19 37 -35 37 -36z"/>
<path d="M7407 6125 c5 -15 3 -17 -11 -12 -11 4 -15 3 -11 -4 4 -6 14 -8 24
-5 11 4 11 2 -4 -10 -18 -15 -18 -16 -1 -10 10 3 24 2 31 -4 9 -8 15 -8 20 0
3 5 3 10 -2 10 -4 0 -1 5 7 10 11 7 11 10 2 10 -7 0 -11 4 -7 9 3 5 1 12 -4
15 -5 4 -13 2 -16 -4 -5 -8 -11 -7 -21 1 -12 10 -13 9 -7 -6z m39 -19 c0 -14
-3 -23 -7 -20 -6 3 -6 22 0 42 3 10 7 -2 7 -22z"/>
<path d="M7355 6110 c3 -5 8 -10 11 -10 2 0 4 5 4 10 0 6 -5 10 -11 10 -5 0
-7 -4 -4 -10z"/>
<path d="M7085 6130 c-3 -5 1 -13 10 -16 14 -6 14 -8 -2 -20 -10 -7 -13 -14
-8 -14 6 0 3 -4 -5 -10 -9 -5 -19 -5 -27 1 -9 8 -11 6 -8 -9 2 -12 -2 -26 -9
-31 -7 -6 -11 -23 -9 -39 2 -15 5 -37 6 -48 3 -25 25 -54 41 -54 6 0 1 9 -12
18 -22 17 -23 19 -6 33 16 12 17 12 11 -4 -4 -11 -3 -16 3 -12 6 3 10 1 10 -4
0 -6 5 -11 11 -11 5 0 7 5 3 12 -5 8 -2 9 10 5 11 -4 15 -3 11 4 -4 6 -13 8
-21 5 -8 -3 -14 -2 -14 3 0 18 15 20 37 5 20 -13 27 -13 41 -2 14 11 15 11 9
-5 -4 -10 -7 -23 -7 -29 0 -6 -6 -6 -15 2 -9 7 -15 8 -15 2 0 -21 31 -22 39 0
6 18 9 19 14 5 6 -16 52 -17 76 -3 10 7 27 -11 35 -39 3 -12 4 -9 2 8 -2 19 3
32 16 41 17 12 17 14 3 20 -9 3 -14 10 -11 15 11 18 -24 20 -41 3 -22 -22 -34
-22 -56 0 -11 11 -13 19 -7 23 8 5 7 11 0 20 -7 8 -9 18 -7 22 3 5 -5 10 -18
11 -13 1 -27 -3 -31 -9 -4 -7 -15 -2 -30 12 -19 17 -21 25 -12 36 9 11 13 11
19 1 7 -11 9 -10 9 0 0 21 -37 64 -45 52z m26 -96 c17 -18 25 -21 36 -12 18
15 58 -19 43 -37 -7 -8 -2 -19 16 -36 31 -29 27 -28 53 -5 17 15 23 17 36 6
12 -10 13 -16 4 -26 -9 -11 -15 -11 -25 -3 -10 8 -18 8 -27 0 -10 -8 -17 -7
-25 1 -9 9 -12 9 -12 0 0 -7 -4 -12 -10 -12 -5 0 -10 6 -10 14 0 20 -26 40
-35 26 -5 -8 -14 -6 -32 5 -19 13 -27 14 -39 4 -8 -6 -14 -8 -14 -4 0 4 -6 2
-13 -4 -10 -8 -14 -7 -15 2 0 6 -3 24 -5 39 -2 16 2 33 9 39 8 6 12 14 10 18
-12 19 35 6 55 -15z"/>
<path d="M7061 6033 c-16 -18 -23 -55 -9 -47 4 3 11 -2 14 -10 3 -9 10 -13 16
-10 5 3 2 11 -7 18 -17 12 -11 51 7 40 6 -4 5 -10 -3 -15 -7 -4 -10 -11 -6
-16 5 -4 12 -1 16 6 6 9 11 10 15 2 4 -6 4 -11 0 -11 -3 0 -1 -7 6 -15 7 -8
16 -12 21 -9 5 3 9 -1 9 -8 0 -10 3 -9 10 2 7 12 13 11 37 -10 l28 -25 -25 28
c-18 21 -21 30 -12 36 10 6 10 11 -3 21 -11 9 -18 10 -28 1 -11 -8 -19 -5 -37
14 -27 29 -30 30 -49 8z m84 -34 c3 6 11 9 16 5 14 -8 -8 -33 -27 -30 -8 1
-13 5 -12 8 2 4 -8 19 -22 35 l-25 28 31 -28 c21 -19 34 -25 39 -18z"/>
<path d="M7272 5941 c2 -7 7 -12 11 -12 12 1 9 15 -3 20 -7 2 -11 -2 -8 -8z"/>
<path d="M7255 6010 c-3 -5 -1 -10 4 -10 6 0 11 5 11 10 0 6 -2 10 -4 10 -3 0
-8 -4 -11 -10z"/>
<path d="M7410 5920 c0 -5 5 -10 11 -10 5 0 7 5 4 10 -3 6 -8 10 -11 10 -2 0
-4 -4 -4 -10z"/>
<path d="M7110 5905 c0 -5 5 -17 10 -25 5 -8 10 -10 10 -5 0 6 -5 17 -10 25
-5 8 -10 11 -10 5z"/>
<path d="M7257 5880 c3 -11 7 -20 9 -20 2 0 4 9 4 20 0 11 -4 20 -9 20 -5 0
-7 -9 -4 -20z"/>
<path d="M7220 5880 c8 -5 20 -10 25 -10 6 0 3 5 -5 10 -8 5 -19 10 -25 10 -5
0 -3 -5 5 -10z"/>
<path d="M7485 5873 c1 -10 -3 -24 -9 -32 -8 -11 -8 -13 0 -8 7 4 15 -1 19
-11 6 -16 7 -16 16 1 6 9 15 17 21 17 9 0 9 -3 1 -11 -6 -6 -9 -18 -6 -27 4
-9 2 -13 -4 -9 -5 3 -10 0 -10 -7 0 -11 4 -12 18 -3 14 9 16 14 6 26 -10 12
-9 14 6 8 11 -4 16 -3 12 3 -3 6 -1 10 5 10 6 0 8 5 5 10 -4 6 -10 8 -14 5 -5
-2 -21 7 -35 20 -32 30 -35 30 -31 8z m31 -30 c-10 -11 -19 -7 -22 10 -2 15 0
16 12 6 8 -6 12 -14 10 -16z"/>
<path d="M7067 5868 c-12 -10 -14 -17 -6 -28 9 -13 10 -13 6 0 -2 8 3 20 12
27 9 7 13 13 10 13 -3 0 -13 -6 -22 -12z"/>
<path d="M7180 5865 c0 -7 30 -13 34 -7 3 4 -4 9 -15 9 -10 1 -19 0 -19 -2z"/>
<path d="M7396 5861 c-3 -5 1 -14 9 -21 10 -9 15 -9 15 -1 0 6 -5 11 -11 11
-5 0 -7 5 -4 10 3 6 4 10 1 10 -3 0 -7 -4 -10 -9z"/>
<path d="M7453 5809 c-2 -23 3 -25 10 -4 4 8 3 16 -1 19 -4 3 -9 -4 -9 -15z"/>
<path d="M7305 6090 c3 -5 11 -10 16 -10 6 0 7 5 4 10 -3 6 -11 10 -16 10 -6
0 -7 -4 -4 -10z"/>
<path d="M7400 5969 c0 -5 5 -7 10 -4 6 3 10 8 10 11 0 2 -4 4 -10 4 -5 0 -10
-5 -10 -11z"/>
<path d="M2757 7113 c-10 -9 -9 -23 1 -23 5 0 9 7 9 15 0 17 -1 18 -10 8z"/>
</g>
</svg>
